<?xml version="1.0" standalone="no"?>
<!DOCTYPE svg PUBLIC "-//W3C//DTD SVG 20010904//EN"
 "http://www.w3.org/TR/2001/REC-SVG-20010904/DTD/svg10.dtd">
<svg version="1.0" xmlns="http://www.w3.org/2000/svg"
 width="980.000000pt" height="980.000000pt" viewBox="0 0 980.000000 980.000000"
 preserveAspectRatio="xMidYMid meet">
<metadata>
Created by potrace 1.14, written by Peter Selinger 2001-2017
</metadata>
<g transform="translate(0.000000,980.000000) scale(0.100000,-0.100000)"
fill="#000000" stroke="none">
<path d="M4273 9013 c-45 -49 -91 -99 -103 -113 -12 -14 -35 -39 -51 -57 -420
-464 -819 -1089 -1014 -1593 l-33 -85 181 -46 c545 -140 1073 -316 1469 -488
62 -27 118 -51 124 -53 6 -2 69 53 140 122 153 147 377 336 528 445 15 11 47
34 70 51 22 17 118 83 211 146 143 97 223 149 472 304 20 13 21 16 8 32 -8 9
-36 44 -62 77 -26 33 -52 65 -58 71 -5 6 -32 37 -60 70 -104 122 -154 174
-329 349 -196 195 -290 277 -463 406 -259 195 -523 333 -781 409 -171 51 -155
54 -249 -47z"/>
<path d="M8997 8024 c-1 -1 -47 -5 -102 -8 -232 -16 -531 -59 -795 -116 -88
-18 -296 -71 -337 -85 -23 -8 -52 -16 -65 -19 -29 -5 -382 -122 -423 -140 -16
-7 -57 -23 -90 -36 -33 -13 -61 -24 -63 -26 -2 -1 7 -19 21 -41 58 -92 291
-519 408 -748 176 -346 288 -599 354 -805 15 -47 31 -88 34 -92 3 -3 89 -9
191 -13 102 -3 205 -8 230 -11 25 -2 72 -6 105 -9 94 -9 212 -22 275 -32 19
-3 44 -6 55 -8 11 -1 47 -7 80 -13 33 -6 74 -14 90 -16 83 -14 242 -50 378
-85 140 -37 201 -54 330 -94 26 -8 47 -14 48 -14 2 5 8 40 13 89 4 31 8 64 10
74 4 21 16 126 22 189 2 22 7 74 11 115 15 160 9 651 -11 835 -38 353 -138
698 -284 988 l-65 129 -209 -3 c-115 -2 -210 -4 -211 -5z"/>
<path d="M6650 7395 c-14 -8 -72 -41 -130 -74 -58 -32 -127 -71 -155 -86 -75
-42 -409 -264 -500 -332 -174 -131 -332 -265 -479 -407 -83 -80 -89 -90 -72
-100 21 -12 400 -292 431 -319 21 -18 283 -222 400 -312 39 -30 83 -65 99 -77
l28 -24 87 29 c88 28 333 95 380 103 14 3 58 11 96 19 139 28 287 51 385 60
30 3 78 8 105 10 28 3 74 8 104 10 29 2 56 6 58 9 7 7 -218 455 -372 741 -129
240 -199 365 -318 573 -61 105 -113 192 -116 192 -3 0 -17 -7 -31 -15z"/>
<path d="M1557 6754 c-1 -1 -56 -4 -122 -8 -66 -4 -139 -9 -162 -11 -99 -11
-121 -14 -173 -20 -44 -6 -182 -30 -333 -60 -9 -2 -21 -6 -25 -9 -5 -3 -23 -8
-40 -11 -32 -5 -228 -66 -272 -83 -14 -6 -50 -20 -80 -32 -70 -28 -230 -107
-294 -145 l-48 -28 6 -201 c3 -111 8 -214 10 -231 3 -16 7 -68 11 -115 3 -47
8 -98 10 -115 43 -311 46 -330 76 -480 46 -222 122 -493 196 -695 66 -182 178
-440 190 -440 3 0 20 11 37 23 69 53 165 117 175 117 5 0 11 4 13 8 7 18 324
191 600 329 157 79 289 143 292 143 4 0 57 24 119 53 62 29 183 84 270 122
l157 69 1 81 c1 44 2 96 3 115 2 19 6 92 10 162 4 70 9 137 11 150 2 13 6 60
10 105 3 46 8 91 9 100 2 10 7 45 10 78 4 33 9 71 11 85 6 30 11 68 21 135 3
28 8 59 10 70 2 11 11 58 20 105 8 47 22 119 31 160 8 41 17 86 19 100 3 14
22 96 43 182 l38 157 -76 6 c-42 3 -95 8 -119 10 -125 13 -654 28 -665 19z"/>
<path d="M2892 6648 c-55 -167 -146 -528 -166 -658 -3 -19 -8 -46 -10 -60 -10
-51 -15 -84 -22 -129 -3 -25 -7 -57 -9 -70 -4 -25 -22 -185 -30 -261 -2 -25
-7 -134 -11 -243 l-6 -198 44 6 c23 3 68 10 98 15 30 5 73 12 95 15 22 4 51 8
65 11 14 2 41 7 60 10 19 3 78 12 130 20 52 9 106 17 120 19 14 2 57 9 95 15
39 7 79 13 90 15 11 2 45 6 75 10 30 4 58 8 61 10 3 2 28 7 55 10 27 4 56 8
64 10 8 2 35 7 60 10 114 15 104 7 182 155 90 171 168 302 276 460 77 112 188
267 202 280 14 14 130 163 128 165 -4 3 -341 116 -458 153 -272 87 -719 205
-975 257 -212 44 -190 47 -213 -27z"/>
<path d="M4900 5982 c-156 -196 -510 -701 -510 -726 0 -4 -12 -25 -27 -49 -15
-23 -32 -51 -38 -62 -141 -254 -212 -397 -285 -570 -45 -106 -47 -110 -109
-282 -41 -115 -125 -403 -119 -409 2 -2 33 36 70 84 36 48 76 98 87 112 251
295 490 531 736 729 50 40 98 79 108 87 182 148 592 404 877 548 52 27 98 51
102 55 9 8 -210 172 -368 277 -164 109 -441 265 -467 263 -7 0 -32 -26 -57
-57z"/>
<path d="M3579 4746 c-2 -2 -31 -6 -64 -9 -179 -17 -460 -75 -745 -154 -88
-25 -114 -38 -105 -53 2 -3 6 -38 9 -77 5 -67 10 -105 21 -178 2 -16 7 -52 11
-80 3 -27 17 -108 30 -180 102 -561 303 -1131 567 -1610 27 -49 56 -102 64
-117 21 -39 34 -45 29 -11 -3 15 -8 64 -11 108 -4 44 -9 88 -10 97 -6 27 -17
344 -18 463 0 109 11 417 18 485 17 174 50 440 60 480 1 3 5 23 9 45 4 22 16
81 26 130 10 50 21 101 24 115 11 55 38 159 57 224 11 38 22 76 24 85 3 15 62
202 72 228 4 9 -6 13 -29 13 -19 0 -37 -2 -39 -4z"/>
<path d="M2140 4450 c-8 -5 -96 -49 -195 -98 -99 -49 -220 -110 -270 -137
-133 -72 -334 -184 -377 -211 -21 -13 -40 -24 -44 -24 -3 0 -29 -15 -57 -34
-29 -18 -88 -55 -132 -81 -87 -53 -346 -214 -357 -225 -10 -8 53 -128 150
-290 207 -345 450 -658 767 -988 l101 -105 129 182 c72 100 186 259 255 354
69 95 137 188 150 207 14 19 27 37 30 40 3 3 40 51 82 107 l77 102 -49 148
c-59 181 -122 424 -145 565 -3 18 -10 56 -15 83 -5 28 -12 68 -16 90 -3 22 -7
51 -9 65 -10 66 -25 189 -27 223 -2 38 -16 46 -48 27z"/>
<path d="M2619 3017 c-156 -210 -465 -706 -592 -951 l-36 -68 32 -27 c18 -14
37 -29 42 -34 6 -4 33 -25 60 -46 176 -136 489 -346 706 -474 394 -232 820
-427 1243 -569 191 -63 506 -151 514 -143 3 3 1 5 -4 5 -5 0 -21 10 -35 23
-15 12 -41 33 -60 47 -80 61 -274 222 -391 326 -591 529 -1073 1153 -1407
1824 -29 58 -53 106 -54 106 -1 1 -9 -8 -18 -19z"/>
</g>
</svg>
